<?xml version="1.0" encoding="utf-8"?>
<!-- Generator: Adobe Illustrator 16.0.0, SVG Export Plug-In . SVG Version: 6.00 Build 0)  -->
<!DOCTYPE svg PUBLIC "-//W3C//DTD SVG 1.1//EN" "http://www.w3.org/Graphics/SVG/1.1/DTD/svg11.dtd">
<svg version="1.1" id="Layer_1" xmlns="http://www.w3.org/2000/svg" xmlns:xlink="http://www.w3.org/1999/xlink" x="0px" y="0px"
	 width="103px" height="100px" viewBox="-12.001 -7.773 103 100" enable-background="new -12.001 -7.773 103 100"
	 xml:space="preserve">
<path fill="#FFFFFF" d="M40.499,0.456C18.132,0.456,0,18.587,0,40.954C0,63.32,18.132,81.453,40.499,81.453
	c22.367,0,40.498-18.133,40.498-40.499C80.997,18.587,62.866,0.456,40.499,0.456z M25.884,57.504L11.278,28.292h9.851l14.608,29.211
	L25.884,57.504L25.884,57.504z M44.151,57.504L29.544,28.292h9.851l14.607,29.211L44.151,57.504L44.151,57.504z M57.987,49.876
	l-4.926-9.851l5.867-11.732h9.85L57.987,49.876z"/>
</svg>
