<?xml version="1.0" encoding="utf-8"?>
<!-- Generator: Adobe Illustrator 16.0.0, SVG Export Plug-In . SVG Version: 6.00 Build 0)  -->
<!DOCTYPE svg PUBLIC "-//W3C//DTD SVG 1.1//EN" "http://www.w3.org/Graphics/SVG/1.1/DTD/svg11.dtd">
<svg version="1.1" xmlns="http://www.w3.org/2000/svg" xmlns:xlink="http://www.w3.org/1999/xlink" x="0px" y="0px" width="612px"
	 height="612px" viewBox="0 0 612 612" enable-background="new 0 0 612 612" xml:space="preserve">
<g id="Layer_2">
	<rect x="-59" y="-49" fill="#FFFFFF" stroke="#000000" stroke-miterlimit="10" width="728" height="720"/>
</g>
<g id="Layer_1">
	<g>
		<g id="XMLID_1_">
			<g>
				<rect x="363.58" y="418.62" fill="#F58235" width="19.729" height="19.729"/>
				<rect x="363.58" y="398.9" fill="#F99E20" width="19.729" height="19.72"/>
				<rect x="363.58" y="379.03" fill="#F58235" width="19.729" height="19.87"/>
				<rect x="363.58" y="359.31" fill="#F58235" width="19.729" height="19.721"/>
				<rect x="363.58" y="339.58" fill="#F99E20" width="19.729" height="19.729"/>
				<rect x="363.58" y="319.86" fill="#F99E20" width="19.729" height="19.72"/>
				<rect x="363.58" y="300.14" fill="#F99E20" width="19.729" height="19.72"/>
				<rect x="363.58" y="280.42" fill="#F58235" width="19.729" height="19.72"/>
				<rect x="363.58" y="181.65" fill="#F58235" width="19.729" height="19.73"/>
				<rect x="363.58" y="161.93" fill="#F99E20" width="19.729" height="19.72"/>
				<rect x="363.58" y="142.21" fill="#F99E20" width="19.729" height="19.72"/>
				<rect x="343.86" y="418.62" fill="#EF4023" width="19.72" height="19.729"/>
				<rect x="343.86" y="398.9" fill="#EF4023" width="19.72" height="19.72"/>
				<rect x="343.86" y="379.03" fill="#EF4023" width="19.72" height="19.87"/>
				<rect x="343.86" y="359.31" fill="#EF4023" width="19.72" height="19.721"/>
				<rect x="343.86" y="339.58" fill="#EF4023" width="19.72" height="19.729"/>
				<rect x="343.86" y="319.86" fill="#EF4023" width="19.72" height="19.72"/>
				<rect x="343.86" y="300.14" fill="#EF4023" width="19.72" height="19.72"/>
				<rect x="343.86" y="280.42" fill="#EF4023" width="19.72" height="19.72"/>
				<rect x="343.86" y="181.65" fill="#EF4023" width="19.72" height="19.73"/>
				<rect x="343.86" y="161.93" fill="#EF4023" width="19.72" height="19.72"/>
				<rect x="343.86" y="142.21" fill="#EF4023" width="19.72" height="19.72"/>
				<rect x="324.14" y="418.62" fill="#EF4023" width="19.721" height="19.729"/>
				<rect x="324.14" y="280.42" fill="#EF4023" width="19.721" height="19.72"/>
				<rect x="324.14" y="142.21" fill="#EF4023" width="19.721" height="19.72"/>
				<rect x="304.42" y="418.62" fill="#EF4023" width="19.72" height="19.729"/>
				<rect x="304.42" y="280.42" fill="#EF4023" width="19.72" height="19.72"/>
				<rect x="304.42" y="142.21" fill="#EF4023" width="19.72" height="19.72"/>
				<rect x="284.69" y="418.62" fill="#EF4023" width="19.73" height="19.729"/>
				<rect x="284.69" y="280.42" fill="#EF4023" width="19.73" height="19.72"/>
				<rect x="284.69" y="142.21" fill="#EF4023" width="19.73" height="19.72"/>
				<rect x="264.97" y="418.62" fill="#EF4023" width="19.72" height="19.729"/>
				<rect x="264.97" y="280.42" fill="#EF4023" width="19.72" height="19.72"/>
				<rect x="264.97" y="260.69" fill="#F99E20" width="19.72" height="19.73"/>
				<rect x="264.97" y="240.97" fill="#F99E20" width="19.72" height="19.72"/>
				<rect x="264.97" y="221.1" fill="#F99E20" width="19.72" height="19.87"/>
				<rect x="264.97" y="201.38" fill="#F99E20" width="19.72" height="19.72"/>
				<rect x="264.97" y="181.65" fill="#F99E20" width="19.72" height="19.73"/>
				<rect x="264.97" y="161.93" fill="#F58235" width="19.72" height="19.72"/>
				<rect x="264.97" y="142.21" fill="#EF4023" width="19.72" height="19.72"/>
				<rect x="245.1" y="418.62" fill="#EF4023" width="19.87" height="19.729"/>
				<rect x="245.1" y="398.9" fill="#EF4023" width="19.87" height="19.72"/>
				<rect x="245.1" y="379.03" fill="#F99E20" width="19.87" height="19.87"/>
				<rect x="245.1" y="280.42" fill="#EF4023" width="19.87" height="19.72"/>
				<rect x="245.1" y="260.69" fill="#EF4023" width="19.87" height="19.73"/>
				<rect x="245.1" y="240.97" fill="#EF4023" width="19.87" height="19.72"/>
				<rect x="245.1" y="221.1" fill="#EF4023" width="19.87" height="19.87"/>
				<rect x="245.1" y="201.38" fill="#EF4023" width="19.87" height="19.72"/>
				<rect x="245.1" y="181.65" fill="#EF4023" width="19.87" height="19.73"/>
				<rect x="245.1" y="161.93" fill="#EF4023" width="19.87" height="19.72"/>
				<rect x="245.1" y="142.21" fill="#EF4023" width="19.87" height="19.72"/>
				<rect x="225.38" y="418.62" fill="#EF4023" width="19.72" height="19.729"/>
				<rect x="225.38" y="398.9" fill="#EF4023" width="19.72" height="19.72"/>
				<rect x="225.38" y="379.03" fill="#EF4023" width="19.72" height="19.87"/>
				<rect x="225.38" y="359.31" fill="#EF4023" width="19.72" height="19.721"/>
			</g>
			<g>
			</g>
		</g>
	</g>
</g>
</svg>
