<?xml version="1.0" encoding="utf-8"?>
<!-- Generator: Adobe Illustrator 16.0.0, SVG Export Plug-In . SVG Version: 6.00 Build 0)  -->
<!DOCTYPE svg PUBLIC "-//W3C//DTD SVG 1.1//EN" "http://www.w3.org/Graphics/SVG/1.1/DTD/svg11.dtd">
<svg version="1.1" xmlns="http://www.w3.org/2000/svg" xmlns:xlink="http://www.w3.org/1999/xlink" x="0px" y="0px" width="920px"
	 height="920px" viewBox="0 0 920 920" enable-background="new 0 0 920 920" xml:space="preserve">
<g id="Layer_2">
	<rect fill="#FFFFFF" width="920" height="920"/>
</g>
<g id="Layer_1">
	<g>
		<g id="XMLID_1_">
			<g>
				<rect x="609.751" y="687.141" fill="#444544" width="19.72" height="19.87"/>
				<rect x="609.751" y="667.421" fill="#444544" width="19.72" height="19.72"/>
				<rect x="609.751" y="647.69" fill="#444544" width="19.72" height="19.73"/>
				<rect x="609.751" y="627.971" fill="#444544" width="19.72" height="19.72"/>
				<rect x="609.751" y="608.251" fill="#444544" width="19.72" height="19.72"/>
				<rect x="609.751" y="588.53" fill="#444544" width="19.72" height="19.721"/>
				<rect x="609.751" y="568.801" fill="#444544" width="19.72" height="19.729"/>
				<rect x="609.751" y="549.081" fill="#444544" width="19.72" height="19.72"/>
				<rect x="609.751" y="529.211" fill="#444544" width="19.72" height="19.87"/>
				<rect x="609.751" y="509.49" fill="#444544" width="19.72" height="19.721"/>
				<rect x="609.751" y="489.761" fill="#444544" width="19.72" height="19.729"/>
				<rect x="609.751" y="470.041" fill="#444544" width="19.72" height="19.72"/>
				<rect x="609.751" y="450.321" fill="#444544" width="19.72" height="19.72"/>
				<rect x="609.751" y="430.601" fill="#444544" width="19.72" height="19.72"/>
				<rect x="609.751" y="410.871" fill="#444544" width="19.72" height="19.73"/>
				<rect x="609.751" y="391.151" fill="#444544" width="19.72" height="19.72"/>
				<rect x="609.751" y="371.281" fill="#444544" width="19.72" height="19.87"/>
				<rect x="609.751" y="351.561" fill="#444544" width="19.72" height="19.72"/>
				<rect x="609.751" y="331.831" fill="#444544" width="19.72" height="19.73"/>
				<rect x="609.751" y="312.111" fill="#444544" width="19.72" height="19.72"/>
				<rect x="609.751" y="292.391" fill="#444544" width="19.72" height="19.72"/>
				<rect x="609.751" y="272.671" fill="#444544" width="19.72" height="19.72"/>
				<rect x="609.751" y="252.94" fill="#444544" width="19.72" height="19.73"/>
				<rect x="609.751" y="233.221" fill="#444544" width="19.72" height="19.72"/>
				<rect x="590.03" y="687.141" fill="#444544" width="19.721" height="19.87"/>
				<rect x="590.03" y="667.421" fill="#444544" width="19.721" height="19.72"/>
				<rect x="590.03" y="647.69" fill="#4379BD" width="19.721" height="19.73"/>
				<rect x="590.03" y="627.971" fill="#4379BD" width="19.721" height="19.72"/>
				<rect x="590.03" y="608.251" fill="#4379BD" width="19.721" height="19.72"/>
				<rect x="590.03" y="588.53" fill="#4379BD" width="19.721" height="19.721"/>
				<rect x="590.03" y="568.801" fill="#4379BD" width="19.721" height="19.729"/>
				<rect x="590.03" y="549.081" fill="#4379BD" width="19.721" height="19.72"/>
				<rect x="590.03" y="529.211" fill="#4379BD" width="19.721" height="19.87"/>
				<rect x="590.03" y="509.49" fill="#4379BD" width="19.721" height="19.721"/>
				<rect x="590.03" y="489.761" fill="#4379BD" width="19.721" height="19.729"/>
				<rect x="590.03" y="470.041" fill="#4379BD" width="19.721" height="19.72"/>
				<rect x="590.03" y="450.321" fill="#4379BD" width="19.721" height="19.72"/>
				<rect x="590.03" y="430.601" fill="#4379BD" width="19.721" height="19.72"/>
				<rect x="590.03" y="410.871" fill="#4379BD" width="19.721" height="19.73"/>
				<rect x="590.03" y="391.151" fill="#4379BD" width="19.721" height="19.72"/>
				<rect x="590.03" y="371.281" fill="#4379BD" width="19.721" height="19.87"/>
				<rect x="590.03" y="351.561" fill="#4379BD" width="19.721" height="19.72"/>
				<rect x="590.03" y="331.831" fill="#4379BD" width="19.721" height="19.73"/>
				<rect x="590.03" y="312.111" fill="#4379BD" width="19.721" height="19.72"/>
				<rect x="590.03" y="292.391" fill="#4379BD" width="19.721" height="19.72"/>
				<rect x="590.03" y="272.671" fill="#4379BD" width="19.721" height="19.72"/>
				<rect x="590.03" y="252.94" fill="#4379BD" width="19.721" height="19.73"/>
				<rect x="590.03" y="233.221" fill="#444544" width="19.721" height="19.72"/>
				<rect x="570.301" y="687.141" fill="#444544" width="19.729" height="19.87"/>
				<rect x="570.301" y="667.421" fill="#444544" width="19.729" height="19.72"/>
				<rect x="570.301" y="647.69" fill="#4379BD" width="19.729" height="19.73"/>
				<rect x="570.301" y="627.971" fill="#4379BD" width="19.729" height="19.72"/>
				<rect x="570.301" y="608.251" fill="#4379BD" width="19.729" height="19.72"/>
				<rect x="570.301" y="588.53" fill="#4379BD" width="19.729" height="19.721"/>
				<rect x="570.301" y="568.801" fill="#4379BD" width="19.729" height="19.729"/>
				<rect x="570.301" y="549.081" fill="#4379BD" width="19.729" height="19.72"/>
				<rect x="570.301" y="529.211" fill="#4379BD" width="19.729" height="19.87"/>
				<rect x="570.301" y="509.49" fill="#4379BD" width="19.729" height="19.721"/>
				<rect x="570.301" y="489.761" fill="#4379BD" width="19.729" height="19.729"/>
				<rect x="570.301" y="470.041" fill="#4379BD" width="19.729" height="19.72"/>
				<rect x="570.301" y="450.321" fill="#4379BD" width="19.729" height="19.72"/>
				<rect x="570.301" y="430.601" fill="#4379BD" width="19.729" height="19.72"/>
				<rect x="570.301" y="410.871" fill="#4379BD" width="19.729" height="19.73"/>
				<rect x="570.301" y="391.151" fill="#4379BD" width="19.729" height="19.72"/>
				<rect x="570.301" y="371.281" fill="#4379BD" width="19.729" height="19.87"/>
				<rect x="570.301" y="351.561" fill="#4379BD" width="19.729" height="19.72"/>
				<rect x="570.301" y="331.831" fill="#4379BD" width="19.729" height="19.73"/>
				<rect x="570.301" y="312.111" fill="#4379BD" width="19.729" height="19.72"/>
				<rect x="570.301" y="292.391" fill="#4379BD" width="19.729" height="19.72"/>
				<rect x="570.301" y="272.671" fill="#4379BD" width="19.729" height="19.72"/>
				<rect x="570.301" y="252.94" fill="#4379BD" width="19.729" height="19.73"/>
				<rect x="570.301" y="233.221" fill="#444544" width="19.729" height="19.72"/>
				<rect x="550.581" y="687.141" fill="#444544" width="19.72" height="19.87"/>
				<rect x="550.581" y="667.421" fill="#444544" width="19.72" height="19.72"/>
				<rect x="550.581" y="647.69" fill="#4379BD" width="19.72" height="19.73"/>
				<rect x="550.581" y="627.971" fill="#4379BD" width="19.72" height="19.72"/>
				<rect x="550.581" y="608.251" fill="#4379BD" width="19.72" height="19.72"/>
				<rect x="550.581" y="588.53" fill="#4379BD" width="19.72" height="19.721"/>
				<rect x="550.581" y="568.801" fill="#4379BD" width="19.72" height="19.729"/>
				<rect x="550.581" y="549.081" fill="#4379BD" width="19.72" height="19.72"/>
				<rect x="550.581" y="529.211" fill="#669ED5" width="19.72" height="19.87"/>
				<rect x="550.581" y="509.49" fill="#4379BD" width="19.72" height="19.721"/>
				<rect x="550.581" y="489.761" fill="#4379BD" width="19.72" height="19.729"/>
				<rect x="550.581" y="470.041" fill="#4379BD" width="19.72" height="19.72"/>
				<rect x="550.581" y="450.321" fill="#4379BD" width="19.72" height="19.72"/>
				<rect x="550.581" y="430.601" fill="#669ED5" width="19.72" height="19.72"/>
				<rect x="550.581" y="410.871" fill="#4379BD" width="19.72" height="19.73"/>
				<rect x="550.581" y="391.151" fill="#4379BD" width="19.72" height="19.72"/>
				<rect x="550.581" y="371.281" fill="#4379BD" width="19.72" height="19.87"/>
				<rect x="550.581" y="351.561" fill="#4379BD" width="19.72" height="19.72"/>
				<rect x="550.581" y="331.831" fill="#669ED5" width="19.72" height="19.73"/>
				<rect x="550.581" y="312.111" fill="#4379BD" width="19.72" height="19.72"/>
				<rect x="550.581" y="292.391" fill="#4379BD" width="19.72" height="19.72"/>
				<rect x="550.581" y="272.671" fill="#4379BD" width="19.72" height="19.72"/>
				<rect x="550.581" y="252.94" fill="#4379BD" width="19.72" height="19.73"/>
				<rect x="550.581" y="233.221" fill="#444544" width="19.72" height="19.72"/>
				<rect x="530.711" y="687.141" fill="#444544" width="19.87" height="19.87"/>
				<rect x="530.711" y="667.421" fill="#444544" width="19.87" height="19.72"/>
				<rect x="530.711" y="647.69" fill="#4379BD" width="19.87" height="19.73"/>
				<rect x="530.711" y="627.971" fill="#4379BD" width="19.87" height="19.72"/>
				<rect x="530.711" y="608.251" fill="#4379BD" width="19.87" height="19.72"/>
				<rect x="530.711" y="588.53" fill="#4379BD" width="19.87" height="19.721"/>
				<rect x="530.711" y="568.801" fill="#4379BD" width="19.87" height="19.729"/>
				<rect x="530.711" y="549.081" fill="#4379BD" width="19.87" height="19.72"/>
				<rect x="530.711" y="529.211" fill="#4379BD" width="19.87" height="19.87"/>
				<rect x="530.711" y="509.49" fill="#669ED5" width="19.87" height="19.721"/>
				<rect x="530.711" y="489.761" fill="#669ED5" width="19.87" height="19.729"/>
				<rect x="530.711" y="470.041" fill="#F29C55" width="19.87" height="19.72"/>
				<rect x="530.711" y="450.321" fill="#669ED5" width="19.87" height="19.72"/>
				<rect x="530.711" y="430.601" fill="#F29C55" width="19.87" height="19.72"/>
				<rect x="530.711" y="410.871" fill="#669ED5" width="19.87" height="19.73"/>
				<rect x="530.711" y="391.151" fill="#669ED5" width="19.87" height="19.72"/>
				<rect x="530.711" y="371.281" fill="#669ED5" width="19.87" height="19.87"/>
				<rect x="530.711" y="351.561" fill="#669ED5" width="19.87" height="19.72"/>
				<rect x="530.711" y="331.831" fill="#669ED5" width="19.87" height="19.73"/>
				<rect x="530.711" y="312.111" fill="#4379BD" width="19.87" height="19.72"/>
				<rect x="530.711" y="292.391" fill="#669ED5" width="19.87" height="19.72"/>
				<rect x="530.711" y="272.671" fill="#4379BD" width="19.87" height="19.72"/>
				<rect x="530.711" y="252.94" fill="#4379BD" width="19.87" height="19.73"/>
				<rect x="530.711" y="233.221" fill="#444544" width="19.87" height="19.72"/>
				<rect x="510.99" y="687.141" fill="#444544" width="19.721" height="19.87"/>
				<rect x="510.99" y="667.421" fill="#444544" width="19.721" height="19.72"/>
				<rect x="510.99" y="647.69" fill="#4379BD" width="19.721" height="19.73"/>
				<rect x="510.99" y="627.971" fill="#4379BD" width="19.721" height="19.72"/>
				<rect x="510.99" y="608.251" fill="#4379BD" width="19.721" height="19.72"/>
				<rect x="510.99" y="588.53" fill="#4379BD" width="19.721" height="19.721"/>
				<rect x="510.99" y="568.801" fill="#4379BD" width="19.721" height="19.729"/>
				<rect x="510.99" y="549.081" fill="#4379BD" width="19.721" height="19.72"/>
				<rect x="510.99" y="529.211" fill="#4379BD" width="19.721" height="19.87"/>
				<rect x="510.99" y="509.49" fill="#669ED5" width="19.721" height="19.721"/>
				<rect x="510.99" y="489.761" fill="#669ED5" width="19.721" height="19.729"/>
				<rect x="510.99" y="470.041" fill="#F29C55" width="19.721" height="19.72"/>
				<rect x="510.99" y="450.321" fill="#FFCE5F" width="19.721" height="19.72"/>
				<rect x="510.99" y="430.601" fill="#FFCE5F" width="19.721" height="19.72"/>
				<rect x="510.99" y="410.871" fill="#669ED5" width="19.721" height="19.73"/>
				<rect x="510.99" y="391.151" fill="#669ED5" width="19.721" height="19.72"/>
				<rect x="510.99" y="371.281" fill="#669ED5" width="19.721" height="19.87"/>
				<rect x="510.99" y="351.561" fill="#669ED5" width="19.721" height="19.72"/>
				<rect x="510.99" y="331.831" fill="#669ED5" width="19.721" height="19.73"/>
				<rect x="510.99" y="312.111" fill="#4379BD" width="19.721" height="19.72"/>
				<rect x="510.99" y="292.391" fill="#4379BD" width="19.721" height="19.72"/>
				<rect x="510.99" y="272.671" fill="#4379BD" width="19.721" height="19.72"/>
				<rect x="510.99" y="252.94" fill="#4379BD" width="19.721" height="19.73"/>
				<rect x="510.99" y="233.221" fill="#444544" width="19.721" height="19.72"/>
				<rect x="491.261" y="687.141" fill="#444544" width="19.729" height="19.87"/>
				<rect x="491.261" y="667.421" fill="#444544" width="19.729" height="19.72"/>
				<rect x="491.261" y="647.69" fill="#4379BD" width="19.729" height="19.73"/>
				<rect x="491.261" y="627.971" fill="#4379BD" width="19.729" height="19.72"/>
				<rect x="491.261" y="608.251" fill="#4379BD" width="19.729" height="19.72"/>
				<rect x="491.261" y="588.53" fill="#4379BD" width="19.729" height="19.721"/>
				<rect x="491.261" y="568.801" fill="#4379BD" width="19.729" height="19.729"/>
				<rect x="491.261" y="549.081" fill="#669ED5" width="19.729" height="19.72"/>
				<rect x="491.261" y="529.211" fill="#669ED5" width="19.729" height="19.87"/>
				<rect x="491.261" y="509.49" fill="#669ED5" width="19.729" height="19.721"/>
				<rect x="491.261" y="489.761" fill="#669ED5" width="19.729" height="19.729"/>
				<rect x="491.261" y="470.041" fill="#FFCE5F" width="19.729" height="19.72"/>
				<rect x="491.261" y="450.321" fill="#FFCE5F" width="19.729" height="19.72"/>
				<rect x="491.261" y="430.601" fill="#FFCE5F" width="19.729" height="19.72"/>
				<rect x="491.261" y="410.871" fill="#FFCE5F" width="19.729" height="19.73"/>
				<rect x="491.261" y="391.151" fill="#FFCE5F" width="19.729" height="19.72"/>
				<rect x="491.261" y="371.281" fill="#F29C55" width="19.729" height="19.87"/>
				<rect x="491.261" y="351.561" fill="#669ED5" width="19.729" height="19.72"/>
				<rect x="491.261" y="331.831" fill="#669ED5" width="19.729" height="19.73"/>
				<rect x="491.261" y="312.111" fill="#4379BD" width="19.729" height="19.72"/>
				<rect x="491.261" y="292.391" fill="#669ED5" width="19.729" height="19.72"/>
				<rect x="491.261" y="272.671" fill="#4379BD" width="19.729" height="19.72"/>
				<rect x="491.261" y="252.94" fill="#4379BD" width="19.729" height="19.73"/>
				<rect x="491.261" y="233.221" fill="#444544" width="19.729" height="19.72"/>
				<rect x="471.541" y="687.141" fill="#444544" width="19.72" height="19.87"/>
				<rect x="471.541" y="667.421" fill="#444544" width="19.72" height="19.72"/>
				<rect x="471.541" y="647.69" fill="#4379BD" width="19.72" height="19.73"/>
				<rect x="471.541" y="627.971" fill="#4379BD" width="19.72" height="19.72"/>
				<rect x="471.541" y="608.251" fill="#4379BD" width="19.72" height="19.72"/>
				<rect x="471.541" y="588.53" fill="#4379BD" width="19.72" height="19.721"/>
				<rect x="471.541" y="568.801" fill="#669ED5" width="19.72" height="19.729"/>
				<rect x="471.541" y="549.081" fill="#4379BD" width="19.72" height="19.72"/>
				<rect x="471.541" y="529.211" fill="#669ED5" width="19.72" height="19.87"/>
				<rect x="471.541" y="509.49" fill="#669ED5" width="19.72" height="19.721"/>
				<rect x="471.541" y="489.761" fill="#FFCE5F" width="19.72" height="19.729"/>
				<rect x="471.541" y="470.041" fill="#FFCE5F" width="19.72" height="19.72"/>
				<rect x="471.541" y="450.321" fill="#F7DBA4" width="19.72" height="19.72"/>
				<rect x="471.541" y="430.601" fill="#F7DBA4" width="19.72" height="19.72"/>
				<rect x="471.541" y="410.871" fill="#F7DBA4" width="19.72" height="19.73"/>
				<rect x="471.541" y="391.151" fill="#FFCE5F" width="19.72" height="19.72"/>
				<rect x="471.541" y="371.281" fill="#669ED5" width="19.72" height="19.87"/>
				<rect x="471.541" y="351.561" fill="#669ED5" width="19.72" height="19.72"/>
				<rect x="471.541" y="331.831" fill="#4379BD" width="19.72" height="19.73"/>
				<rect x="471.541" y="312.111" fill="#4379BD" width="19.72" height="19.72"/>
				<rect x="471.541" y="292.391" fill="#4379BD" width="19.72" height="19.72"/>
				<rect x="471.541" y="272.671" fill="#4379BD" width="19.72" height="19.72"/>
				<rect x="471.541" y="252.94" fill="#4379BD" width="19.72" height="19.73"/>
				<rect x="471.541" y="233.221" fill="#444544" width="19.72" height="19.72"/>
				<rect x="451.821" y="687.141" fill="#444544" width="19.72" height="19.87"/>
				<rect x="451.821" y="667.421" fill="#444544" width="19.72" height="19.72"/>
				<rect x="451.821" y="647.69" fill="#4379BD" width="19.72" height="19.73"/>
				<rect x="451.821" y="627.971" fill="#4379BD" width="19.72" height="19.72"/>
				<rect x="451.821" y="608.251" fill="#4379BD" width="19.72" height="19.72"/>
				<rect x="451.821" y="588.53" fill="#4379BD" width="19.72" height="19.721"/>
				<rect x="451.821" y="568.801" fill="#4379BD" width="19.72" height="19.729"/>
				<rect x="451.821" y="549.081" fill="#669ED5" width="19.72" height="19.72"/>
				<rect x="451.821" y="529.211" fill="#4379BD" width="19.72" height="19.87"/>
				<rect x="451.821" y="509.49" fill="#FFCE5F" width="19.72" height="19.721"/>
				<rect x="451.821" y="489.761" fill="#FFCE5F" width="19.72" height="19.729"/>
				<rect x="451.821" y="470.041" fill="#FFCE5F" width="19.72" height="19.72"/>
				<rect x="451.821" y="450.321" fill="#F7DBA4" width="19.72" height="19.72"/>
				<rect x="451.821" y="430.601" fill="#FAF6ED" width="19.72" height="19.72"/>
				<rect x="451.821" y="410.871" fill="#F7DBA4" width="19.72" height="19.73"/>
				<rect x="451.821" y="391.151" fill="#FFCE5F" width="19.72" height="19.72"/>
				<rect x="451.821" y="371.281" fill="#FFCE5F" width="19.72" height="19.87"/>
				<rect x="451.821" y="351.561" fill="#F29C55" width="19.72" height="19.72"/>
				<rect x="451.821" y="331.831" fill="#669ED5" width="19.72" height="19.73"/>
				<rect x="451.821" y="312.111" fill="#4379BD" width="19.72" height="19.72"/>
				<rect x="451.821" y="292.391" fill="#4379BD" width="19.72" height="19.72"/>
				<rect x="451.821" y="272.671" fill="#4379BD" width="19.72" height="19.72"/>
				<rect x="451.821" y="252.94" fill="#4379BD" width="19.72" height="19.73"/>
				<rect x="451.821" y="233.221" fill="#444544" width="19.72" height="19.72"/>
				<rect x="432.101" y="687.141" fill="#444544" width="19.72" height="19.87"/>
				<rect x="432.101" y="667.421" fill="#444544" width="19.72" height="19.72"/>
				<rect x="432.101" y="647.69" fill="#4379BD" width="19.72" height="19.73"/>
				<rect x="432.101" y="627.971" fill="#4379BD" width="19.72" height="19.72"/>
				<rect x="432.101" y="608.251" fill="#4379BD" width="19.72" height="19.72"/>
				<rect x="432.101" y="588.53" fill="#4379BD" width="19.72" height="19.721"/>
				<rect x="432.101" y="568.801" fill="#669ED5" width="19.72" height="19.729"/>
				<rect x="432.101" y="549.081" fill="#669ED5" width="19.72" height="19.72"/>
				<rect x="432.101" y="529.211" fill="#669ED5" width="19.72" height="19.87"/>
				<rect x="432.101" y="509.49" fill="#669ED5" width="19.72" height="19.721"/>
				<rect x="432.101" y="489.761" fill="#669ED5" width="19.72" height="19.729"/>
				<rect x="432.101" y="470.041" fill="#FFCE5F" width="19.72" height="19.72"/>
				<rect x="432.101" y="450.321" fill="#F7DBA4" width="19.72" height="19.72"/>
				<rect x="432.101" y="430.601" fill="#F7DBA4" width="19.72" height="19.72"/>
				<rect x="432.101" y="410.871" fill="#F7DBA4" width="19.72" height="19.73"/>
				<rect x="432.101" y="391.151" fill="#FFCE5F" width="19.72" height="19.72"/>
				<rect x="432.101" y="371.281" fill="#FFCE5F" width="19.72" height="19.87"/>
				<rect x="432.101" y="351.561" fill="#669ED5" width="19.72" height="19.72"/>
				<rect x="432.101" y="331.831" fill="#4379BD" width="19.72" height="19.73"/>
				<rect x="432.101" y="312.111" fill="#669ED5" width="19.72" height="19.72"/>
				<rect x="432.101" y="292.391" fill="#4379BD" width="19.72" height="19.72"/>
				<rect x="432.101" y="272.671" fill="#4379BD" width="19.72" height="19.72"/>
				<rect x="432.101" y="252.94" fill="#4379BD" width="19.72" height="19.73"/>
				<rect x="432.101" y="233.221" fill="#444544" width="19.72" height="19.72"/>
				<rect x="412.371" y="687.141" fill="#444544" width="19.73" height="19.87"/>
				<rect x="412.371" y="667.421" fill="#444544" width="19.73" height="19.72"/>
				<rect x="412.371" y="647.69" fill="#4379BD" width="19.73" height="19.73"/>
				<rect x="412.371" y="627.971" fill="#4379BD" width="19.73" height="19.72"/>
				<rect x="412.371" y="608.251" fill="#4379BD" width="19.73" height="19.72"/>
				<rect x="412.371" y="588.53" fill="#4379BD" width="19.73" height="19.721"/>
				<rect x="412.371" y="568.801" fill="#4379BD" width="19.73" height="19.729"/>
				<rect x="412.371" y="549.081" fill="#669ED5" width="19.73" height="19.72"/>
				<rect x="412.371" y="529.211" fill="#669ED5" width="19.73" height="19.87"/>
				<rect x="412.371" y="509.49" fill="#669ED5" width="19.73" height="19.721"/>
				<rect x="412.371" y="489.761" fill="#FFCE5F" width="19.73" height="19.729"/>
				<rect x="412.371" y="470.041" fill="#FFCE5F" width="19.73" height="19.72"/>
				<rect x="412.371" y="450.321" fill="#FFCE5F" width="19.73" height="19.72"/>
				<rect x="412.371" y="430.601" fill="#FFCE5F" width="19.73" height="19.72"/>
				<rect x="412.371" y="410.871" fill="#FFCE5F" width="19.73" height="19.73"/>
				<rect x="412.371" y="391.151" fill="#FFCE5F" width="19.73" height="19.72"/>
				<rect x="412.371" y="371.281" fill="#669ED5" width="19.73" height="19.87"/>
				<rect x="412.371" y="351.561" fill="#669ED5" width="19.73" height="19.72"/>
				<rect x="412.371" y="331.831" fill="#669ED5" width="19.73" height="19.73"/>
				<rect x="412.371" y="312.111" fill="#669ED5" width="19.73" height="19.72"/>
				<rect x="412.371" y="292.391" fill="#4379BD" width="19.73" height="19.72"/>
				<rect x="412.371" y="272.671" fill="#4379BD" width="19.73" height="19.72"/>
				<rect x="412.371" y="252.94" fill="#4379BD" width="19.73" height="19.73"/>
				<rect x="412.371" y="233.221" fill="#444544" width="19.73" height="19.72"/>
				<rect x="392.651" y="687.141" fill="#444544" width="19.72" height="19.87"/>
				<rect x="392.651" y="667.421" fill="#444544" width="19.72" height="19.72"/>
				<rect x="392.651" y="647.69" fill="#4379BD" width="19.72" height="19.73"/>
				<rect x="392.651" y="627.971" fill="#4379BD" width="19.72" height="19.72"/>
				<rect x="392.651" y="608.251" fill="#4379BD" width="19.72" height="19.72"/>
				<rect x="392.651" y="588.53" fill="#4379BD" width="19.72" height="19.721"/>
				<rect x="392.651" y="568.801" fill="#4379BD" width="19.72" height="19.729"/>
				<rect x="392.651" y="549.081" fill="#4379BD" width="19.72" height="19.72"/>
				<rect x="392.651" y="529.211" fill="#4379BD" width="19.72" height="19.87"/>
				<rect x="392.651" y="509.49" fill="#669ED5" width="19.72" height="19.721"/>
				<rect x="392.651" y="489.761" fill="#F29C55" width="19.72" height="19.729"/>
				<rect x="392.651" y="470.041" fill="#FFCE5F" width="19.72" height="19.72"/>
				<rect x="392.651" y="450.321" fill="#4379BD" width="19.72" height="19.72"/>
				<rect x="392.651" y="430.601" fill="#F29C55" width="19.72" height="19.72"/>
				<rect x="392.651" y="410.871" fill="#669ED5" width="19.72" height="19.73"/>
				<rect x="392.651" y="391.151" fill="#F29C55" width="19.72" height="19.72"/>
				<rect x="392.651" y="371.281" fill="#669ED5" width="19.72" height="19.87"/>
				<rect x="392.651" y="351.561" fill="#4379BD" width="19.72" height="19.72"/>
				<rect x="392.651" y="331.831" fill="#669ED5" width="19.72" height="19.73"/>
				<rect x="392.651" y="312.111" fill="#4379BD" width="19.72" height="19.72"/>
				<rect x="392.651" y="292.391" fill="#4379BD" width="19.72" height="19.72"/>
				<rect x="392.651" y="272.671" fill="#669ED5" width="19.72" height="19.72"/>
				<rect x="392.651" y="252.94" fill="#4379BD" width="19.72" height="19.73"/>
				<rect x="392.651" y="233.221" fill="#444544" width="19.72" height="19.72"/>
				<rect x="372.781" y="687.141" fill="#444544" width="19.87" height="19.87"/>
				<rect x="372.781" y="667.421" fill="#444544" width="19.87" height="19.72"/>
				<rect x="372.781" y="647.69" fill="#4379BD" width="19.87" height="19.73"/>
				<rect x="372.781" y="627.971" fill="#4379BD" width="19.87" height="19.72"/>
				<rect x="372.781" y="608.251" fill="#4379BD" width="19.87" height="19.72"/>
				<rect x="372.781" y="588.53" fill="#4379BD" width="19.87" height="19.721"/>
				<rect x="372.781" y="568.801" fill="#669ED5" width="19.87" height="19.729"/>
				<rect x="372.781" y="549.081" fill="#669ED5" width="19.87" height="19.72"/>
				<rect x="372.781" y="529.211" fill="#669ED5" width="19.87" height="19.87"/>
				<rect x="372.781" y="509.49" fill="#669ED5" width="19.87" height="19.721"/>
				<rect x="372.781" y="489.761" fill="#669ED5" width="19.87" height="19.729"/>
				<rect x="372.781" y="470.041" fill="#669ED5" width="19.87" height="19.72"/>
				<rect x="372.781" y="450.321" fill="#4379BD" width="19.87" height="19.72"/>
				<rect x="372.781" y="430.601" fill="#669ED5" width="19.87" height="19.72"/>
				<rect x="372.781" y="410.871" fill="#669ED5" width="19.87" height="19.73"/>
				<rect x="372.781" y="391.151" fill="#669ED5" width="19.87" height="19.72"/>
				<rect x="372.781" y="371.281" fill="#669ED5" width="19.87" height="19.87"/>
				<rect x="372.781" y="351.561" fill="#669ED5" width="19.87" height="19.72"/>
				<rect x="372.781" y="331.831" fill="#669ED5" width="19.87" height="19.73"/>
				<rect x="372.781" y="312.111" fill="#669ED5" width="19.87" height="19.72"/>
				<rect x="372.781" y="292.391" fill="#669ED5" width="19.87" height="19.72"/>
				<rect x="372.781" y="272.671" fill="#4379BD" width="19.87" height="19.72"/>
				<rect x="372.781" y="252.94" fill="#4379BD" width="19.87" height="19.73"/>
				<rect x="372.781" y="233.221" fill="#444544" width="19.87" height="19.72"/>
				<rect x="353.061" y="687.141" fill="#444544" width="19.72" height="19.87"/>
				<rect x="353.061" y="667.421" fill="#444544" width="19.72" height="19.72"/>
				<rect x="353.061" y="647.69" fill="#4379BD" width="19.72" height="19.73"/>
				<rect x="353.061" y="627.971" fill="#4379BD" width="19.72" height="19.72"/>
				<rect x="353.061" y="608.251" fill="#4379BD" width="19.72" height="19.72"/>
				<rect x="353.061" y="588.53" fill="#4379BD" width="19.72" height="19.721"/>
				<rect x="353.061" y="568.801" fill="#4379BD" width="19.72" height="19.729"/>
				<rect x="353.061" y="549.081" fill="#4379BD" width="19.72" height="19.72"/>
				<rect x="353.061" y="529.211" fill="#4379BD" width="19.72" height="19.87"/>
				<rect x="353.061" y="509.49" fill="#4379BD" width="19.72" height="19.721"/>
				<rect x="353.061" y="489.761" fill="#669ED5" width="19.72" height="19.729"/>
				<rect x="353.061" y="470.041" fill="#669ED5" width="19.72" height="19.72"/>
				<rect x="353.061" y="450.321" fill="#4379BD" width="19.72" height="19.72"/>
				<rect x="353.061" y="430.601" fill="#669ED5" width="19.72" height="19.72"/>
				<rect x="353.061" y="410.871" fill="#669ED5" width="19.72" height="19.73"/>
				<rect x="353.061" y="391.151" fill="#669ED5" width="19.72" height="19.72"/>
				<rect x="353.061" y="371.281" fill="#4379BD" width="19.72" height="19.87"/>
				<rect x="353.061" y="351.561" fill="#4379BD" width="19.72" height="19.72"/>
				<rect x="353.061" y="331.831" fill="#4379BD" width="19.72" height="19.73"/>
				<rect x="353.061" y="312.111" fill="#669ED5" width="19.72" height="19.72"/>
				<rect x="353.061" y="292.391" fill="#4379BD" width="19.72" height="19.72"/>
				<rect x="353.061" y="272.671" fill="#4379BD" width="19.72" height="19.72"/>
				<rect x="353.061" y="252.94" fill="#4379BD" width="19.72" height="19.73"/>
				<rect x="353.061" y="233.221" fill="#444544" width="19.72" height="19.72"/>
				<rect x="333.331" y="687.141" fill="#444544" width="19.73" height="19.87"/>
				<rect x="333.331" y="667.421" fill="#444544" width="19.73" height="19.72"/>
				<rect x="333.331" y="647.69" fill="#4379BD" width="19.73" height="19.73"/>
				<rect x="333.331" y="627.971" fill="#4379BD" width="19.73" height="19.72"/>
				<rect x="333.331" y="608.251" fill="#4379BD" width="19.73" height="19.72"/>
				<rect x="333.331" y="588.53" fill="#4379BD" width="19.73" height="19.721"/>
				<rect x="333.331" y="568.801" fill="#4379BD" width="19.73" height="19.729"/>
				<rect x="333.331" y="549.081" fill="#4379BD" width="19.73" height="19.72"/>
				<rect x="333.331" y="529.211" fill="#4379BD" width="19.73" height="19.87"/>
				<rect x="333.331" y="509.49" fill="#4379BD" width="19.73" height="19.721"/>
				<rect x="333.331" y="489.761" fill="#4379BD" width="19.73" height="19.729"/>
				<rect x="333.331" y="470.041" fill="#4379BD" width="19.73" height="19.72"/>
				<rect x="333.331" y="450.321" fill="#4379BD" width="19.73" height="19.72"/>
				<rect x="333.331" y="430.601" fill="#4379BD" width="19.73" height="19.72"/>
				<rect x="333.331" y="410.871" fill="#4379BD" width="19.73" height="19.73"/>
				<rect x="333.331" y="391.151" fill="#4379BD" width="19.73" height="19.72"/>
				<rect x="333.331" y="371.281" fill="#4379BD" width="19.73" height="19.87"/>
				<rect x="333.331" y="351.561" fill="#4379BD" width="19.73" height="19.72"/>
				<rect x="333.331" y="331.831" fill="#4379BD" width="19.73" height="19.73"/>
				<rect x="333.331" y="312.111" fill="#4379BD" width="19.73" height="19.72"/>
				<rect x="333.331" y="292.391" fill="#4379BD" width="19.73" height="19.72"/>
				<rect x="333.331" y="272.671" fill="#4379BD" width="19.73" height="19.72"/>
				<rect x="333.331" y="252.94" fill="#4379BD" width="19.73" height="19.73"/>
				<rect x="333.331" y="233.221" fill="#444544" width="19.73" height="19.72"/>
				<rect x="313.611" y="687.141" fill="#444544" width="19.72" height="19.87"/>
				<rect x="313.611" y="667.421" fill="#444544" width="19.72" height="19.72"/>
				<rect x="313.611" y="647.69" fill="#4379BD" width="19.72" height="19.73"/>
				<rect x="313.611" y="627.971" fill="#4379BD" width="19.72" height="19.72"/>
				<rect x="313.611" y="608.251" fill="#4379BD" width="19.72" height="19.72"/>
				<rect x="313.611" y="588.53" fill="#4379BD" width="19.72" height="19.721"/>
				<rect x="313.611" y="568.801" fill="#4379BD" width="19.72" height="19.729"/>
				<rect x="313.611" y="549.081" fill="#4379BD" width="19.72" height="19.72"/>
				<rect x="313.611" y="529.211" fill="#4379BD" width="19.72" height="19.87"/>
				<rect x="313.611" y="509.49" fill="#4379BD" width="19.72" height="19.721"/>
				<rect x="313.611" y="489.761" fill="#4379BD" width="19.72" height="19.729"/>
				<rect x="313.611" y="470.041" fill="#4379BD" width="19.72" height="19.72"/>
				<rect x="313.611" y="450.321" fill="#4379BD" width="19.72" height="19.72"/>
				<rect x="313.611" y="430.601" fill="#4379BD" width="19.72" height="19.72"/>
				<rect x="313.611" y="410.871" fill="#4379BD" width="19.72" height="19.73"/>
				<rect x="313.611" y="391.151" fill="#4379BD" width="19.72" height="19.72"/>
				<rect x="313.611" y="371.281" fill="#4379BD" width="19.72" height="19.87"/>
				<rect x="313.611" y="351.561" fill="#4379BD" width="19.72" height="19.72"/>
				<rect x="313.611" y="331.831" fill="#4379BD" width="19.72" height="19.73"/>
				<rect x="313.611" y="312.111" fill="#4379BD" width="19.72" height="19.72"/>
				<rect x="313.611" y="292.391" fill="#4379BD" width="19.72" height="19.72"/>
				<rect x="313.611" y="272.671" fill="#4379BD" width="19.72" height="19.72"/>
				<rect x="313.611" y="252.94" fill="#4379BD" width="19.72" height="19.73"/>
				<rect x="313.611" y="233.221" fill="#444544" width="19.72" height="19.72"/>
				<rect x="293.891" y="687.141" fill="#444544" width="19.72" height="19.87"/>
				<rect x="293.891" y="667.421" fill="#444544" width="19.72" height="19.72"/>
				<rect x="293.891" y="647.69" fill="#444544" width="19.72" height="19.73"/>
				<rect x="293.891" y="627.971" fill="#444544" width="19.72" height="19.72"/>
				<rect x="293.891" y="608.251" fill="#444544" width="19.72" height="19.72"/>
				<rect x="293.891" y="588.53" fill="#444544" width="19.72" height="19.721"/>
				<rect x="293.891" y="568.801" fill="#444544" width="19.72" height="19.729"/>
				<rect x="293.891" y="549.081" fill="#444544" width="19.72" height="19.72"/>
				<rect x="293.891" y="529.211" fill="#444544" width="19.72" height="19.87"/>
				<rect x="293.891" y="509.49" fill="#444544" width="19.72" height="19.721"/>
				<rect x="293.891" y="489.761" fill="#444544" width="19.72" height="19.729"/>
				<rect x="293.891" y="470.041" fill="#444544" width="19.72" height="19.72"/>
				<rect x="293.891" y="450.321" fill="#444544" width="19.72" height="19.72"/>
				<rect x="293.891" y="430.601" fill="#444544" width="19.72" height="19.72"/>
				<rect x="293.891" y="410.871" fill="#444544" width="19.72" height="19.73"/>
				<rect x="293.891" y="391.151" fill="#444544" width="19.72" height="19.72"/>
				<rect x="293.891" y="371.281" fill="#444544" width="19.72" height="19.87"/>
				<rect x="293.891" y="351.561" fill="#444544" width="19.72" height="19.72"/>
				<rect x="293.891" y="331.831" fill="#444544" width="19.72" height="19.73"/>
				<rect x="293.891" y="312.111" fill="#444544" width="19.72" height="19.72"/>
				<rect x="293.891" y="292.391" fill="#444544" width="19.72" height="19.72"/>
				<rect x="293.891" y="272.671" fill="#444544" width="19.72" height="19.72"/>
				<rect x="293.891" y="252.94" fill="#444544" width="19.72" height="19.73"/>
				<rect x="293.891" y="233.221" fill="#444544" width="19.72" height="19.72"/>
			</g>
			<g>
			</g>
		</g>
	</g>
</g>
</svg>
